# xmcd
#
# Track frame offsets: 
#        150
#        19522
#        37570
#        56557
#        70177
#        93919
#        113980
#        132193
#        150276
#        168868
#        188223
#        206043
#        226938
#        245088
#        264900
#        284360
#        302712
#        323795
#        343575
#
# Disc length: 4781 seconds
#
# Revision: 4
# Processed by: cddbd v1.5.2PL0 Copyright (c) Steve Scherf et al.
# Submitted via: ExactAudioCopy v0.99pb4
#
DISCID=f812ab13
DTITLE=Kenny G - Ultimate Kenny G
DYEAR=2003
DGENRE=Jazz
TTITLE0=Everlasting [#]
TTITLE1=Havana
TTITLE2=Brazil
TTITLE3=What A Wonderful World (Louis Armstrong With Kenny G)
TTITLE4=The Look Of Love
TTITLE5=Silhouette
TTITLE6=One More Time (With Chante Moore)
TTITLE7=Theme From Dying Young
TTITLE8=Forever In Love
TTITLE9=We've Saved The Best For Last
TTITLE10=Songbird
TTITLE11=Jasmine Flower
TTITLE12=The Girl From Ipanema (With Bebel Gilberto)
TTITLE13=By The Time This Night Is Over (With Peabo Bryson)
TTITLE14=The Champion's Theme
TTITLE15=Don't Make Me Wait For Love
TTITLE16=The Moment
TTITLE17=My Heart Will Go On (Love Theme From Titanic)
TTITLE18=The Wedding Song
EXTD=YEAR: 2003
EXTT0=
EXTT1=
EXTT2=
EXTT3=
EXTT4=
EXTT5=
EXTT6=
EXTT7=
EXTT8=
EXTT9=
EXTT10=
EXTT11=
EXTT12=
EXTT13=
EXTT14=
EXTT15=
EXTT16=
EXTT17=
EXTT18=
PLAYORDER=
